# xmcd
#
# Track frame offsets:
#	150
#	14431
#	29540
#	43866
#	60805
#	74525
#	85445
#	97681
#	108695
#	120192
#	136469
#	150165
#	163155
#	175819
#	192484
#
# Disc length: 2707 seconds
#
# Revision: 0
# Processed by: cddbd v1.4PL0 Copyright (c) Steve Scherf et al.
# Submitted via: dBpowerAMP V4.0
#
DISCID=c10a910f
DTITLE=On The Road (especially for truckers) - Vol 4
DYEAR=1900
DGENRE=Country
TTITLE0=Simon - You Don't Know What You've Got
TTITLE1=Henny Weijmans - Bury My Heart
TTITLE2=Dixie Aces - Heart Is Right
TTITLE3=Major Dundee Band With Dick Van Altena - Come On Rosie
TTITLE4=Bobby Prins - 18 Yellow Roses
TTITLE5=The Locomotions - Move It
TTITLE6=Jack Jersey - Tonight Is Allright For Love
TTITLE7=Roland Konings and That's It - Bob To Me
TTITLE8=Simon - Wooden Heart
TTITLE9=The Walkers - High Time We Went
TTITLE10=Rocky Taylor - Sweet Rocking Angel
TTITLE11=Lafayette - Sweet Susannah
TTITLE12=Bobby Prins - Only A Fool
TTITLE13=Roland Konings - Drinking Me Baby Goodbye
TTITLE14=The Tamara's - Quarter Master Stores
EXTD=
EXTT0=
EXTT1=
EXTT2=
EXTT3=
EXTT4=
EXTT5=
EXTT6=
EXTT7=
EXTT8=
EXTT9=
EXTT10=
EXTT11=
EXTT12=
EXTT13=
EXTT14=
PLAYORDER=
